<svg version="1.2" xmlns="http://www.w3.org/2000/svg" viewBox="0 0 510 510" width="510" height="510">
	<title>google-messages-svg</title>
	<style>
		.s0 { fill: #2200d1 } 
		.s1 { fill: #080056 } 
		.s2 { fill: #ffffff } 
		.s3 { fill: #5f53ff } 
		.s4 { fill: #000000 } 
		.s5 { fill: #120045 } 
	</style>
	<g id="Layer">
		<path id="Layer" class="s0" d="m255.3 509.6c-140.9 0-254.7-113.8-254.7-254.7 0-140.8 113.8-254.6 254.7-254.6 140.8 0 254.6 113.8 254.6 254.6 0 140.9-113.8 254.7-254.6 254.7z"/>
		<path id="Layer" class="s1" d="m347.9 365h-173.5c-24.7 0-46.2-18.7-46.2-43.4v-0.2 14.4c0 24.7 21.5 46.2 46.2 46.2h173.5c25 0 46.3-21.8 46.3-46.2v-14.4c0 24.7-21.6 43.6-46.3 43.6zm-220-124.5v-19.7l-32.3-53.3c-1.8-2.9-2.6-5.5-2.3-8.1v22.6c0 2.1 0.7 4.2 2.1 6.5z"/>
		<path id="Layer" class="s2" d="m347.9 150.7h-243.1c-9.7 0-15.2 8.4-8.7 17.3l31.8 55.2v98.4c0 25.2 18.4 46.3 43.3 46.3h176.5c24.9 0 46.2-21.3 46.2-46.3v-124.4c0.3-25.2-21-46.5-46-46.5z"/>
		<g id="Layer">
			<path id="Layer" class="s3" d="m345.1 220.3h-167.8c-7.4 0-14.5-4.5-14.5-11.6 0-7.1 7.1-11.5 14.5-11.5h167.8c7.3 0 14.4 4.4 14.4 11.5 0 7.1-7.1 11.6-14.4 11.6zm0 46.2h-167.8c-7.4 0-14.5-4.5-14.5-11.6 0-7 7.1-11.5 14.5-11.5h167.8c7.3 0 14.4 4.5 14.4 11.5 0 7.1-7.1 11.6-14.4 11.6zm-46.5 46.5h-121.6c-7.3 0-14.4-4.5-14.4-11.6 0-7.1 7.1-11.5 14.4-11.5h121.6c7.3 0 14.4 4.4 14.4 11.5 0 7.1-7.1 11.6-14.4 11.6z"/>
		</g>
		<path id="Layer" class="s4" d="m509.9 253.6c-0.5 111.6-73.2 206.4-173.5 240-25.5 8.7-52.8 13.1-81.1 13.1-140.2 0-253.9-113.1-254.7-253.1v1.6c0 140.7 113.9 254.7 254.7 254.7 28.3 0 55.6-4.7 81.1-13.1 100.8-33.9 173.6-129.2 173.6-241.6z"/>
		<path id="Layer" class="s5" d="m336.1 13.4c-25.4-8.7-52.7-13.1-81.1-13.1-140.7 0-254.7 113.9-254.7 254.6v1.6c0.8-139.9 114.5-253.1 254.7-253.1 28.4 0 55.7 4.7 81.1 13.1 100.6 33.6 173.1 128.4 173.6 240v-1.6c0.2-112.3-72.5-207.6-173.6-241.5z"/>
	</g>
</svg>